<?xml version="1.0" encoding="UTF-8"?>
<svg xmlns="http://www.w3.org/2000/svg" xmlns:xlink="http://www.w3.org/1999/xlink" width="157px" height="135px" viewBox="0 0 157 135" version="1.1">
<g id="surface1">
<path style=" stroke:none;fill-rule:evenodd;fill:rgb(3.137255%,46.27451%,15.294118%);fill-opacity:1;" d="M 75.949219 7.386719 C 75.621094 7.40625 74.394531 7.523438 73.234375 7.632812 C 46.476562 10.195312 24.683594 32.050781 21.847656 59.160156 C 21.617188 61.390625 21.1875 61.175781 25.714844 61.132812 L 29.578125 61.097656 L 29.921875 58.664062 C 32.136719 43.179688 40.457031 30.511719 53.667969 22.519531 C 84.394531 3.929688 124.027344 23.398438 128.5 59.273438 C 128.625 60.277344 128.796875 61.140625 128.882812 61.195312 C 128.964844 61.25 130.75 61.296875 132.847656 61.300781 L 136.660156 61.300781 L 136.574219 59.847656 C 135.828125 46.609375 128.105469 31.496094 117.15625 21.8125 C 105.984375 11.941406 89.964844 6.332031 75.949219 7.386719 M 82.929688 66.261719 C 81.230469 66.824219 79.628906 66.992188 79.128906 66.660156 C 77.269531 65.433594 72.042969 65.957031 68.558594 67.71875 C 67.84375 68.078125 67.152344 68.59375 67.378906 68.589844 C 67.40625 68.589844 67.941406 68.5 68.566406 68.386719 C 72.554688 67.683594 73.699219 68.53125 72.921875 71.609375 C 72.527344 73.171875 70.949219 78.511719 70.796875 78.808594 L 70.648438 79.097656 L 69.441406 78.574219 C 67.433594 77.703125 65.550781 77.535156 64.171875 78.105469 C 63.4375 78.410156 63.453125 78.527344 64.246094 78.636719 C 65.496094 78.796875 68.023438 80.332031 69.363281 81.742188 L 69.828125 82.226562 L 69.308594 84.082031 C 67.679688 89.960938 65.808594 94.097656 63.960938 95.898438 C 63.089844 96.75 63.117188 96.773438 64.539062 96.46875 C 65.765625 96.210938 67.175781 95.546875 68.367188 94.671875 C 69.433594 93.875 69.605469 93.84375 70.054688 94.324219 C 70.8125 95.140625 73.167969 96.6875 73.363281 96.492188 C 73.394531 96.453125 73.261719 96.011719 73.0625 95.507812 C 72.121094 93.144531 72.253906 89.476562 73.351562 87.320312 C 73.613281 86.8125 73.523438 86.707031 75.765625 90.058594 C 76.863281 91.691406 77.789062 93.03125 77.828125 93.03125 C 77.863281 93.03125 78.441406 92.085938 79.105469 90.9375 C 80.433594 88.632812 81.78125 86.683594 82.042969 86.683594 C 82.230469 86.683594 83.339844 90.0625 83.667969 91.621094 C 83.921875 92.832031 83.921875 94.429688 83.667969 95.269531 C 83.558594 95.632812 83.46875 95.949219 83.464844 95.96875 C 83.457031 96.277344 85.441406 95.226562 86.375 94.429688 L 87.070312 93.832031 L 88.859375 94.773438 C 90.601562 95.683594 95.042969 97.542969 95.28125 97.460938 C 95.34375 97.433594 95.082031 97.15625 94.699219 96.835938 C 91.050781 93.796875 86.957031 85.726562 86.957031 81.570312 C 86.957031 81.226562 86.851562 80.753906 86.71875 80.519531 C 84.128906 75.808594 83.054688 70.15625 84.121094 66.863281 C 84.515625 65.65625 84.613281 65.710938 82.929688 66.261719 M 21.816406 69.355469 C 21.445312 69.722656 22.265625 75.429688 23.207031 79.105469 C 26.089844 90.289062 31.085938 98.992188 39.085938 106.753906 C 67.253906 134.074219 113.300781 126.132812 130.816406 90.933594 C 134.121094 84.289062 136.601562 75.238281 136.617188 69.769531 L 136.617188 69.265625 L 133 69.265625 C 128.398438 69.265625 128.808594 69.078125 128.519531 71.324219 C 123.507812 110.347656 78.421875 128.664062 47.976562 104.042969 C 37.878906 95.878906 31.015625 83.34375 29.789062 70.832031 C 29.707031 70.007812 29.589844 69.449219 29.480469 69.378906 C 29.277344 69.25 21.945312 69.226562 21.816406 69.355469 M 79.480469 77.890625 L 80.941406 82.648438 L 80.597656 83.148438 C 79.730469 84.410156 77.933594 86.5625 77.789062 86.515625 C 77.582031 86.449219 74.742188 83.027344 74.742188 82.847656 C 74.742188 82.722656 76.816406 75.855469 77.445312 73.882812 C 77.597656 73.414062 77.789062 73.054688 77.867188 73.082031 C 77.953125 73.109375 78.675781 75.273438 79.480469 77.890625 "/>
<path style=" stroke:none;fill-rule:evenodd;fill:rgb(91.372549%,87.058824%,17.647059%);fill-opacity:1;" d="M 76.742188 32.984375 C 76.167969 33.371094 76.070312 33.90625 76.515625 34.214844 C 76.804688 34.421875 76.832031 34.421875 77.070312 34.09375 C 77.683594 33.242188 78.210938 33.988281 77.605469 34.863281 C 76.824219 35.988281 76.757812 36.128906 76.757812 36.621094 C 76.753906 37.222656 76.578125 37.269531 76.078125 36.785156 C 75.570312 36.300781 74.855469 36.207031 74.480469 36.582031 C 74.089844 36.976562 74.175781 37.292969 74.710938 37.433594 C 75.265625 37.574219 75.347656 37.785156 75.511719 39.519531 C 75.664062 41.160156 75.753906 41.320312 77.054688 42.304688 C 78.226562 43.199219 78.445312 43.546875 78.746094 44.996094 C 78.90625 45.769531 79.03125 46.109375 79.167969 46.109375 C 79.367188 46.109375 79.433594 45.914062 79.710938 44.503906 C 79.878906 43.667969 80.421875 42.992188 81.84375 41.867188 C 82.585938 41.28125 82.761719 40.839844 82.875 39.273438 C 82.980469 37.78125 83.0625 37.585938 83.609375 37.464844 C 84.179688 37.339844 84.261719 37.023438 83.816406 36.636719 C 83.3125 36.199219 82.832031 36.230469 82.308594 36.742188 C 81.796875 37.242188 81.589844 37.164062 81.589844 36.46875 C 81.589844 35.960938 81.132812 35.160156 80.601562 34.71875 C 80.003906 34.222656 80.523438 33.53125 81.132812 34.011719 C 81.964844 34.671875 82.667969 33.910156 81.882812 33.199219 C 81.273438 32.65625 80.695312 32.671875 80.152344 33.246094 C 79.316406 34.132812 79.269531 34.554688 79.777344 36.390625 C 80.332031 38.390625 80.335938 39.207031 79.820312 41.238281 C 79.328125 43.167969 79.15625 43.390625 78.90625 42.4375 C 78.816406 42.078125 78.613281 41.394531 78.453125 40.910156 C 78.058594 39.707031 78.089844 38.300781 78.546875 36.363281 C 79.0625 34.167969 78.957031 33.574219 77.929688 32.945312 C 77.375 32.605469 77.296875 32.609375 76.742188 32.984375 M 71.808594 39.496094 C 70.921875 40.246094 70.746094 41.808594 71.4375 42.722656 C 71.867188 43.292969 71.871094 43.234375 71.386719 43.726562 C 70.625 44.488281 70.9375 45.601562 71.734375 44.972656 C 72.210938 44.601562 72.5 44.617188 72.882812 45.046875 C 74.035156 46.351562 73.6875 46.246094 75.953125 45.96875 C 77.621094 45.765625 78.628906 48.683594 77.59375 50.707031 C 77.230469 51.417969 76.792969 51.820312 76.9375 51.308594 C 77.386719 49.757812 76.878906 48.609375 75.753906 48.609375 C 74.921875 48.609375 74.371094 49.695312 75.144531 49.800781 C 76.90625 50.042969 75.59375 52.730469 73.488281 53.207031 C 70.953125 53.777344 69.023438 50.542969 70.785156 48.664062 C 71.46875 47.933594 71.847656 48.085938 71.515625 48.957031 C 71.0625 50.148438 72.972656 50.617188 73.667969 49.488281 C 74.863281 47.535156 72.402344 45.796875 70.417969 47.199219 C 67.28125 49.417969 69.261719 53.800781 73.402344 53.804688 C 78.078125 53.808594 80.578125 47.960938 77.300781 44.6875 C 76.429688 43.816406 76.207031 43.683594 73.492188 42.394531 C 72.507812 41.933594 72.058594 41.414062 72.058594 40.75 C 72.058594 40.191406 72.554688 39.96875 72.730469 40.445312 C 72.988281 41.125 73.800781 40.648438 73.617188 39.921875 C 73.4375 39.191406 72.449219 38.957031 71.808594 39.496094 M 85.058594 39.410156 C 84.617188 39.757812 84.515625 40.140625 84.761719 40.496094 C 85.007812 40.851562 85.484375 40.859375 85.574219 40.515625 C 85.730469 39.894531 86.226562 40.042969 86.367188 40.75 C 86.496094 41.402344 85.746094 42.0625 84.054688 42.78125 C 79.777344 44.601562 78.371094 48.367188 80.691406 51.808594 C 82.230469 54.085938 86.40625 54.550781 88.28125 52.648438 C 90.503906 50.394531 89.207031 46.714844 86.203125 46.71875 C 84.3125 46.71875 83.664062 49.589844 85.441406 50.085938 C 86.433594 50.359375 87.199219 49.5625 86.785156 48.6875 C 86.519531 48.117188 86.753906 48.007812 87.347656 48.421875 C 89.429688 49.894531 87.503906 53.726562 84.917969 53.25 C 82.96875 52.890625 81.550781 50.253906 83.089844 49.851562 C 83.644531 49.710938 83.742188 49.289062 83.3125 48.886719 C 82.304688 47.941406 80.894531 49.339844 81.289062 50.90625 C 81.480469 51.667969 81.265625 51.570312 80.84375 50.707031 C 79.636719 48.222656 80.964844 45.273438 82.980469 45.980469 C 84.042969 46.351562 84.734375 46.191406 85.058594 45.496094 C 85.414062 44.753906 86.140625 44.546875 86.710938 45.03125 L 87.152344 45.402344 L 87.328125 44.96875 C 87.542969 44.429688 87.453125 44.121094 86.945312 43.640625 L 86.554688 43.273438 L 86.898438 42.78125 C 88.101562 41.082031 86.546875 38.234375 85.058594 39.410156 M 78.765625 50.664062 C 77.882812 52.636719 78.3125 54.445312 79.539062 53.886719 C 80.339844 53.515625 80.394531 52.402344 79.691406 50.761719 C 79.34375 49.941406 79.105469 49.917969 78.765625 50.664062 "/>
</g>
</svg>
