<?xml version="1.0" encoding="UTF-8"?>
<svg xmlns="http://www.w3.org/2000/svg" xmlns:xlink="http://www.w3.org/1999/xlink" width="198px" height="170px" viewBox="0 0 198 170" version="1.1">
<g id="surface1">
<path style=" stroke:none;fill-rule:evenodd;fill:rgb(3.137255%,46.27451%,15.294118%);fill-opacity:1;" d="M 95.785156 9.300781 C 95.367188 9.328125 93.824219 9.472656 92.359375 9.613281 C 58.613281 12.839844 31.128906 40.359375 27.554688 74.496094 C 27.261719 77.308594 26.722656 77.035156 32.429688 76.980469 L 37.300781 76.9375 L 37.738281 73.875 C 40.527344 54.375 51.023438 38.421875 67.683594 28.355469 C 106.433594 4.949219 156.417969 29.464844 162.058594 74.640625 C 162.214844 75.90625 162.429688 76.992188 162.539062 77.0625 C 162.644531 77.128906 164.894531 77.1875 167.539062 77.191406 L 172.347656 77.195312 L 172.242188 75.363281 C 171.296875 58.695312 161.558594 39.660156 147.75 27.46875 C 133.664062 15.035156 113.460938 7.972656 95.785156 9.300781 M 104.585938 83.441406 C 102.441406 84.148438 100.421875 84.359375 99.792969 83.941406 C 97.449219 82.398438 90.855469 83.058594 86.464844 85.277344 C 85.5625 85.726562 84.6875 86.375 84.972656 86.371094 C 85.007812 86.371094 85.683594 86.257812 86.472656 86.117188 C 91.5 85.230469 92.945312 86.296875 91.964844 90.175781 C 91.46875 92.140625 89.476562 98.867188 89.285156 99.238281 L 89.097656 99.605469 L 87.574219 98.945312 C 85.042969 97.847656 82.667969 97.636719 80.929688 98.355469 C 80.003906 98.738281 80.023438 98.886719 81.023438 99.023438 C 82.601562 99.226562 85.785156 101.160156 87.476562 102.933594 L 88.0625 103.542969 L 87.410156 105.882812 C 85.351562 113.285156 82.992188 118.492188 80.664062 120.761719 C 79.566406 121.832031 79.601562 121.863281 81.394531 121.480469 C 82.941406 121.15625 84.71875 120.320312 86.21875 119.214844 C 87.566406 118.214844 87.78125 118.171875 88.347656 118.777344 C 89.304688 119.808594 92.273438 121.753906 92.519531 121.507812 C 92.5625 121.460938 92.394531 120.902344 92.140625 120.269531 C 90.957031 117.292969 91.121094 112.675781 92.507812 109.957031 C 92.835938 109.320312 92.722656 109.1875 95.550781 113.40625 C 96.933594 115.464844 98.105469 117.148438 98.152344 117.148438 C 98.199219 117.148438 98.925781 115.960938 99.761719 114.515625 C 101.4375 111.609375 103.136719 109.15625 103.46875 109.15625 C 103.703125 109.15625 105.101562 113.410156 105.515625 115.375 C 105.839844 116.898438 105.839844 118.910156 105.519531 119.96875 C 105.378906 120.425781 105.265625 120.824219 105.261719 120.847656 C 105.25 121.238281 107.753906 119.914062 108.933594 118.910156 L 109.808594 118.160156 L 112.066406 119.34375 C 114.261719 120.492188 119.863281 122.832031 120.164062 122.726562 C 120.242188 122.695312 119.914062 122.34375 119.429688 121.941406 C 114.828125 118.113281 109.667969 107.953125 109.664062 102.71875 C 109.664062 102.285156 109.53125 101.691406 109.367188 101.394531 C 106.097656 95.460938 104.742188 88.34375 106.089844 84.199219 C 106.585938 82.679688 106.710938 82.746094 104.585938 83.441406 M 27.511719 87.335938 C 27.046875 87.800781 28.078125 94.984375 29.269531 99.613281 C 32.902344 113.699219 39.203125 124.65625 49.292969 134.429688 C 84.816406 168.835938 142.886719 158.832031 164.976562 114.507812 C 169.148438 106.140625 172.273438 94.746094 172.292969 87.859375 L 172.292969 87.222656 L 167.734375 87.222656 C 161.929688 87.222656 162.445312 86.988281 162.082031 89.816406 C 155.761719 138.957031 98.902344 162.019531 60.503906 131.015625 C 47.769531 120.734375 39.113281 104.953125 37.566406 89.195312 C 37.464844 88.15625 37.316406 87.453125 37.179688 87.367188 C 36.921875 87.203125 27.675781 87.171875 27.511719 87.335938 M 100.234375 98.085938 L 102.078125 104.078125 L 101.644531 104.707031 C 100.550781 106.292969 98.285156 109.003906 98.105469 108.945312 C 97.84375 108.863281 94.261719 104.554688 94.261719 104.328125 C 94.261719 104.167969 96.875 95.523438 97.671875 93.039062 C 97.863281 92.449219 98.105469 91.996094 98.203125 92.027344 C 98.308594 92.0625 99.222656 94.789062 100.234375 98.085938 "/>
<path style=" stroke:none;fill-rule:evenodd;fill:rgb(91.372549%,87.058824%,17.647059%);fill-opacity:1;" d="M 96.78125 41.535156 C 96.058594 42.023438 95.933594 42.695312 96.496094 43.085938 C 96.863281 43.347656 96.898438 43.34375 97.195312 42.933594 C 97.972656 41.859375 98.636719 42.800781 97.871094 43.902344 C 96.886719 45.320312 96.800781 45.496094 96.800781 46.117188 C 96.796875 46.871094 96.574219 46.929688 95.945312 46.324219 C 95.304688 45.710938 94.402344 45.59375 93.929688 46.066406 C 93.4375 46.5625 93.546875 46.960938 94.222656 47.136719 C 94.921875 47.316406 95.023438 47.582031 95.230469 49.765625 C 95.425781 51.832031 95.539062 52.035156 97.175781 53.273438 C 98.65625 54.398438 98.929688 54.835938 99.308594 56.660156 C 99.511719 57.636719 99.671875 58.0625 99.84375 58.0625 C 100.09375 58.0625 100.175781 57.816406 100.527344 56.042969 C 100.738281 54.988281 101.421875 54.136719 103.214844 52.722656 C 104.152344 51.984375 104.375 51.429688 104.515625 49.457031 C 104.652344 47.578125 104.753906 47.332031 105.441406 47.179688 C 106.164062 47.019531 106.265625 46.621094 105.707031 46.136719 C 105.070312 45.585938 104.460938 45.625 103.800781 46.269531 C 103.15625 46.898438 102.894531 46.800781 102.894531 45.921875 C 102.894531 45.285156 102.320312 44.273438 101.652344 43.71875 C 100.898438 43.09375 101.550781 42.222656 102.320312 42.832031 C 103.371094 43.660156 104.257812 42.699219 103.265625 41.808594 C 102.5 41.121094 101.769531 41.140625 101.085938 41.867188 C 100.03125 42.984375 99.96875 43.515625 100.609375 45.824219 C 101.308594 48.34375 101.316406 49.371094 100.664062 51.929688 C 100.042969 54.359375 99.828125 54.640625 99.511719 53.4375 C 99.398438 52.988281 99.140625 52.125 98.941406 51.515625 C 98.445312 50 98.480469 48.230469 99.058594 45.792969 C 99.710938 43.027344 99.578125 42.277344 98.28125 41.488281 C 97.582031 41.058594 97.484375 41.0625 96.78125 41.535156 M 90.5625 49.738281 C 89.445312 50.679688 89.21875 52.648438 90.09375 53.800781 C 90.636719 54.519531 90.640625 54.445312 90.027344 55.0625 C 89.070312 56.023438 89.464844 57.425781 90.46875 56.632812 C 91.066406 56.164062 91.433594 56.183594 91.917969 56.726562 C 93.371094 58.367188 92.929688 58.234375 95.789062 57.886719 C 97.890625 57.628906 99.160156 61.304688 97.855469 63.855469 C 97.398438 64.746094 96.847656 65.253906 97.03125 64.609375 C 97.597656 62.660156 96.957031 61.210938 95.539062 61.210938 C 94.488281 61.210938 93.792969 62.578125 94.769531 62.710938 C 96.988281 63.015625 95.335938 66.402344 92.679688 67 C 89.480469 67.71875 87.046875 63.648438 89.269531 61.28125 C 90.132812 60.359375 90.609375 60.550781 90.191406 61.648438 C 89.621094 63.148438 92.027344 63.742188 92.90625 62.316406 C 94.414062 59.859375 91.308594 57.671875 88.808594 59.4375 C 84.851562 62.230469 87.347656 67.75 92.570312 67.753906 C 98.46875 67.757812 101.621094 60.394531 97.488281 56.273438 C 96.390625 55.175781 96.109375 55.007812 92.683594 53.386719 C 91.445312 52.804688 90.878906 52.152344 90.875 51.3125 C 90.875 50.613281 91.5 50.332031 91.722656 50.929688 C 92.050781 51.785156 93.074219 51.1875 92.84375 50.273438 C 92.613281 49.351562 91.367188 49.058594 90.5625 49.738281 M 107.273438 49.628906 C 106.714844 50.066406 106.585938 50.546875 106.898438 50.996094 C 107.207031 51.441406 107.808594 51.453125 107.921875 51.019531 C 108.121094 50.238281 108.746094 50.425781 108.921875 51.316406 C 109.085938 52.136719 108.136719 52.96875 106.003906 53.871094 C 100.609375 56.164062 98.839844 60.90625 101.765625 65.242188 C 103.703125 68.109375 108.972656 68.691406 111.335938 66.296875 C 114.136719 63.460938 112.503906 58.824219 108.714844 58.832031 C 106.328125 58.832031 105.511719 62.445312 107.753906 63.070312 C 109.003906 63.414062 109.972656 62.410156 109.449219 61.308594 C 109.113281 60.59375 109.410156 60.453125 110.15625 60.976562 C 112.785156 62.828125 110.355469 67.65625 107.09375 67.054688 C 104.636719 66.601562 102.847656 63.28125 104.789062 62.777344 C 105.488281 62.597656 105.609375 62.066406 105.070312 61.5625 C 103.796875 60.371094 102.019531 62.132812 102.515625 64.105469 C 102.757812 65.0625 102.488281 64.941406 101.957031 63.855469 C 100.433594 60.722656 102.109375 57.011719 104.648438 57.902344 C 105.992188 58.367188 106.863281 58.167969 107.273438 57.292969 C 107.71875 56.355469 108.636719 56.097656 109.355469 56.707031 L 109.910156 57.171875 L 110.132812 56.625 C 110.40625 55.949219 110.292969 55.558594 109.652344 54.957031 L 109.15625 54.492188 L 109.59375 53.871094 C 111.109375 51.734375 109.148438 48.148438 107.273438 49.628906 M 99.335938 63.800781 C 98.222656 66.28125 98.765625 68.5625 100.308594 67.855469 C 101.320312 67.390625 101.390625 65.988281 100.503906 63.921875 C 100.0625 62.890625 99.761719 62.859375 99.335938 63.800781 "/>
</g>
</svg>
